<svg width="3" height="10" viewBox="0 0 3 10" fill="none" xmlns="http://www.w3.org/2000/svg">
<path d="M2.50012 1C2.50012 1.55228 2.05241 2 1.50012 2C0.947837 2 0.500122 1.55228 0.500122 1C0.500122 0.447715 0.947837 0 1.50012 0C2.05241 0 2.50012 0.447715 2.50012 1Z" fill="#233043"/>
<path d="M2.5 5C2.5 5.55228 2.05228 6 1.5 6C0.947715 6 0.5 5.55228 0.5 5C0.5 4.44772 0.947715 4 1.5 4C2.05228 4 2.5 4.44772 2.5 5Z" fill="#233043"/>
<path d="M2.5 9C2.5 9.55229 2.05228 10 1.5 10C0.947715 10 0.5 9.55229 0.5 9C0.5 8.44771 0.947715 8 1.5 8C2.05228 8 2.5 8.44771 2.5 9Z" fill="#233043"/>
</svg>
